<?xml version="1.0" standalone="no"?>
<!DOCTYPE svg PUBLIC "-//W3C//DTD SVG 20010904//EN"
 "http://www.w3.org/TR/2001/REC-SVG-20010904/DTD/svg10.dtd">
<svg version="1.0" xmlns="http://www.w3.org/2000/svg"
 width="1257.000000pt" height="244.000000pt" viewBox="0 0 1257.000000 244.000000"
 preserveAspectRatio="xMidYMid meet">

<g transform="translate(0.000000,244.000000) scale(0.100000,-0.100000)"
fill="#000000" stroke="none">
<path d="M0 1220 l0 -1220 6285 0 6285 0 0 1220 0 1220 -6285 0 -6285 0 0
-1220z m7582 1035 c300 -61 540 -319 550 -595 l3 -65 -52 -3 c-52 -3 -52 -3
-57 30 -27 189 -58 260 -161 364 -51 52 -91 81 -145 107 -120 59 -185 72 -340
71 -218 -2 -360 -52 -476 -168 -82 -83 -107 -146 -108 -276 -1 -119 23 -179
96 -245 93 -84 189 -118 554 -200 375 -84 461 -117 563 -210 103 -96 148 -247
123 -418 -43 -298 -320 -487 -717 -490 -269 -1 -462 68 -616 222 -114 114
-177 254 -195 431 l-7 70 56 0 56 0 6 -48 c18 -146 46 -228 111 -318 77 -109
205 -190 359 -230 110 -28 345 -26 450 4 277 80 419 270 385 515 -12 85 -36
131 -93 184 -83 77 -170 108 -477 173 -384 81 -540 141 -651 250 -89 87 -119
164 -119 307 0 228 141 417 375 502 163 59 350 72 527 36z m-7025 -640 c189
-335 348 -614 352 -618 5 -5 165 271 357 612 l349 621 58 0 57 0 0 -1015 0
-1015 -820 0 -820 0 0 1015 0 1016 61 -3 61 -3 345 -610z m3163 560 l0 -55
-300 0 -300 0 0 -905 0 -905 300 0 300 0 0 -55 0 -55 -661 0 -660 0 3 53 3 52
303 3 302 2 0 905 0 905 -305 0 -305 0 0 48 c0 27 3 52 7 55 3 4 300 7 660 7
l653 0 0 -55z m1520 -625 c384 -374 701 -680 704 -680 4 0 6 306 6 680 l0 680
55 0 55 0 0 -1015 0 -1015 -55 0 -55 0 0 253 -1 252 -702 684 -702 684 -3
-937 -2 -936 -60 0 -60 0 0 1015 0 1015 60 0 61 0 699 -680z m3640 0 c0 -374
3 -680 8 -680 4 0 313 306 687 680 l680 680 72 0 c40 0 73 -3 73 -7 0 -5 -189
-195 -421 -423 l-421 -415 407 -569 c223 -313 413 -580 422 -593 l15 -23 -65
0 -66 0 -392 548 c-215 301 -393 549 -396 552 -2 2 -139 -131 -303 -295 l-300
-300 0 -252 0 -253 -55 0 -55 0 0 1015 0 1015 55 0 55 0 0 -680z m2440 148
c195 -293 357 -537 360 -541 4 -4 166 234 360 529 194 295 359 538 365 540 7
3 37 4 68 2 l56 -3 -394 -598 -395 -599 0 -414 0 -414 -55 0 -55 0 0 413 0
413 -395 597 c-217 329 -395 600 -395 602 0 3 29 5 64 5 l63 0 353 -532z"/>
<path d="M200 1163 l0 -853 710 0 710 0 0 847 c0 704 -2 844 -13 828 -7 -11
-154 -269 -327 -572 l-313 -553 -56 0 -56 1 -318 562 c-175 309 -322 569 -327
577 -6 10 -10 -290 -10 -837z"/>
</g>
</svg>
